HIERARCHY
ROOT pelvis
{
  OFFSET 0 100 0
  CHANNELS 6 Xposition Yposition Zposition Zrotation Xrotation Yrotation
  JOINT pelvis_right_femur
  {
    OFFSET -10.78128 -3.44521 -0.5502486
    CHANNELS 3 Zrotation Xrotation Yrotation
    JOINT right_femur_tibia
    {
      OFFSET -0.8047443 -44.0398 -0.1307829
      CHANNELS 3 Zrotation Xrotation Yrotation
      JOINT right_tibia_foot
      {
        OFFSET 3.006224 -47.83518 -5
        CHANNELS 3 Zrotation Xrotation Yrotation
        End Site
        {
          OFFSET 0 -5 15
        }
      }
    }
  }
  JOINT pelvis_left_femur
  {
    OFFSET 10.78128 -3.44521 -0.5502486
    CHANNELS 3 Zrotation Xrotation Yrotation
    JOINT left_femur_tibia
    {
      OFFSET 0.8047443 -44.0398 -0.1307829
      CHANNELS 3 Zrotation Xrotation Yrotation
      JOINT left_tibia_foot
      {
        OFFSET -4.370144 -48.10324 -4.275266
        CHANNELS 3 Zrotation Xrotation Yrotation
        End Site
        {
          OFFSET 0 -5 15
        }
      }
    }
  }
  JOINT pelvis_spine1
  {
    OFFSET 0 6.468898 -3.129235
    CHANNELS 3 Zrotation Xrotation Yrotation
    JOINT spine1
    {
      OFFSET 0 23.15396 4.99043
      CHANNELS 3 Zrotation Xrotation Yrotation
      JOINT spine2
      {
        OFFSET 0 20.79997 -5.064912
        CHANNELS 3 Zrotation Xrotation Yrotation
        JOINT neck
        {
          OFFSET 0 14.38658 9.616178
          CHANNELS 3 Zrotation Xrotation Yrotation
          End Site
          {
            OFFSET 0 20 0
          }
        }
      }
      JOINT right_manubrium
      {
        OFFSET -5.722621 16.35077 3.967754
        CHANNELS 3 Zrotation Xrotation Yrotation
        JOINT right_clavicle
        {
          OFFSET -13.16364 1.694482 -4.693211
          CHANNELS 3 Zrotation Xrotation Yrotation
          JOINT right_humerus
          {
            OFFSET -28.5034 -0.3100689 -2.792744
            CHANNELS 3 Zrotation Xrotation Yrotation
            JOINT right_radius
            {
              OFFSET -25.15693 0.02248979 -1.271978
              CHANNELS 3 Zrotation Xrotation Yrotation
              End Site
              {
                OFFSET -15 0 0
              }
            }
          }
        }
      }
      JOINT left_manubrium
      {
        OFFSET 5.722621 16.35077 3.967754
        CHANNELS 3 Zrotation Xrotation Yrotation
        JOINT left_clavicle
        {
          OFFSET 13.16364 1.694482 -4.693211
          CHANNELS 3 Zrotation Xrotation Yrotation
          JOINT left_humerus
          {
            OFFSET 29.39168 -1.063119 -2.237045
            CHANNELS 3 Zrotation Xrotation Yrotation
            JOINT left_radius
            {
              OFFSET 24.59957 -0.9528479 0.9047498
              CHANNELS 3 Zrotation Xrotation Yrotation
              End Site
              {
                OFFSET 15 -0 -0
              }
            }
          }
        }
      }
    }
  }
}
MOTION
Frames: 9
Frame Time: 0.0416666666667
0 103.5113 0 2.466713 0.5466849 0.2582375 3.373231 -16.25728 9.194607 -0 37.42878 -0 -3.53484 -19.28344 -1.615964 -9.417201 9.691167 -22.66272 -0 4.316805 -0 22.54037 -8.747406 30.13348 -2.105392 -2.320193 5.334728 2.166235 10.02138 -6.631705 1.412055 21.27971 7.308954 2.97085 -24.38663 10.32776 5.370648 -19.214 11.51109 86.13022 38.67489 -17.23838 -0 0 14.39804 -8.116879 8.919935 5.394185 5.969151 -20.03916 -1.202649 -91.12228 20.44367 20.49092 0 0 -17.73089 13.74364 12.18327 -1.957891
0.4012087 103.816 1.613813 1.845904 1.269389 0.5237895 4.869074 -19.03357 10.47207 -0 38.56149 -0 -3.522651 -18.09927 -1.754469 -9.176505 9.707574 -22.52132 -0 5.014988 -0 23.6862 -8.512274 30.96149 -2.157608 -2.159552 4.981874 2.410388 10.00818 -6.877854 1.427877 21.18315 7.348348 2.887678 -24.55151 10.48771 5.342938 -18.87243 11.53602 86.81032 38.92934 -18.07344 -0 0 13.6801 -7.494963 9.027075 5.107797 5.879157 -20.03449 -1.458481 -90.25411 20.27304 19.46671 0 0 -19.126 13.93893 11.70158 -2.32692
0.7527717 103.7648 3.482242 1.294696 0.9693671 0.6732653 4.777789 -21.07055 9.137559 -0 33.80916 -0 -4.354354 -15.74946 -2.179711 -8.19299 10.88806 -22.02433 -0 5.38162 -0 17.27382 -13.44376 28.83553 -2.132801 -2.250236 4.788143 2.660126 9.994791 -7.127443 1.401382 21.13379 7.387478 2.845287 -25.0644 10.65523 5.376509 -18.77584 11.52939 87.27807 38.67211 -19.018 -0 0 13.28389 -6.865206 9.002069 4.721588 5.968208 -20.19775 -1.479883 -90.33099 20.6145 19.36481 0 0 -19.49775 14.22204 11.78373 -2.582998
1.083385 103.5708 5.583351 0.7844161 1.12527 0.7514064 5.250724 -23.45524 8.52946 -0 31.03841 -0 -4.943497 -13.51788 -2.194992 -7.630995 11.38888 -21.39038 -0 5.918334 -0 14.54449 -15.7858 27.6033 -2.127829 -2.279857 4.572546 2.909268 9.98918 -7.37145 1.378434 21.081 7.392509 2.785936 -25.46241 10.75724 5.397472 -18.62895 11.54143 87.70478 38.40946 -19.85745 -0 0 12.84748 -6.319128 8.982676 4.428961 5.99573 -20.31478 -1.563783 -90.22938 20.87696 19.09584 0 0 -20.01016 14.36029 11.7461 -2.724101
1.405687 103.2228 8.028082 0.2979503 1.508164 0.8122536 5.856309 -26.38853 7.750297 -0 27.57401 -0 -5.589296 -10.7153 -1.850883 -7.221833 11.74806 -20.39946 -0 6.689813 -0 12.99897 -17.49679 26.4248 -2.138611 -2.26364 4.351759 3.156049 9.99521 -7.609066 1.353162 21.02869 7.355846 2.710949 -25.75674 10.77446 5.410013 -18.45072 11.57254 88.05651 38.0966 -20.57689 -0 0 12.39759 -5.886666 8.958166 4.246069 5.96825 -20.4003 -1.695424 -90.01229 21.0931 18.72604 0 0 -20.57721 14.33305 11.62445 -2.710419
1.725498 102.7289 10.8967 -0.07873541 1.981363 0.9048073 6.36678 -29.18467 6.814679 -0 23.77268 -0 -6.220761 -7.808628 -1.286617 -6.961005 12.0724 -19.25018 -0 7.690651 -0 12.18919 -18.6373 25.253 -2.157264 -2.225145 4.14133 3.387579 10.00691 -7.830293 1.326751 20.9798 7.299489 2.632578 -25.98046 10.74329 5.417404 -18.26798 11.61196 88.34672 37.7735 -21.19015 -0 0 11.9667 -5.542547 8.92888 4.13475 5.913218 -20.46605 -1.844288 -89.74972 21.2717 18.32733 0 0 -21.13366 14.21699 11.46608 -2.611709
2.043903 102.1229 14.28166 -0.3653172 2.448961 1.080028 6.732403 -31.53639 5.661305 -0 19.83665 -0 -6.908732 -4.781222 -0.5749301 -6.774295 12.45595 -17.98837 -0 9.190711 -0 11.53302 -19.33334 23.85277 -2.18171 -2.168912 3.952138 3.59217 10.02396 -8.025645 1.300322 20.93679 7.227534 2.555452 -26.12565 10.66734 5.41986 -18.0901 11.6564 88.56702 37.45849 -21.67681 -0 0 11.57432 -5.303097 8.899782 4.09618 5.837069 -20.51389 -2.000261 -89.45877 21.40651 17.92105 0 0 -21.65028 14.02545 11.2838 -2.438185
2.35782 101.4851 18.2513 -0.6050844 2.80104 1.383525 6.95564 -33.00129 4.333373 -0 16.34342 -0 -7.687712 -1.827215 0.1576048 -6.56569 12.9134 -16.70262 -0 11.4873 -0 10.4249 -19.57016 21.97204 -2.208375 -2.104329 3.797411 3.757754 10.04501 -8.184673 1.275242 20.90314 7.146185 2.48551 -26.19211 10.55561 5.418824 -17.93071 11.70135 88.70808 37.16618 -22.02025 -0 0 11.24637 -5.178187 8.874447 4.124525 5.75063 -20.54707 -2.148203 -89.17423 21.50035 17.54565 0 0 -22.08147 13.78046 11.10185 -2.206734
2.663179 100.9465 22.8361 -0.8743747 2.959969 1.836833 7.130157 -33.22848 2.923542 -0 13.83919 -0 -8.576828 0.7739619 0.7940672 -6.224229 13.33441 -15.41406 -0 14.93912 -0 8.430442 -19.16795 19.38834 -2.234664 -2.037417 3.691737 3.870485 10.06972 -8.294668 1.253158 20.88269 7.058538 2.427849 -26.17018 10.41114 5.415071 -17.80216 11.7436 88.75242 36.90878 -22.1905 -0 0 11.01145 -5.188499 8.857134 4.222651 5.660826 -20.56545 -2.275581 -88.92427 21.5527 17.23547 0 0 -22.38253 13.49193 10.93931 -1.922666
